<svg width="14" height="14" viewBox="0 0 14 14" fill="none" xmlns="http://www.w3.org/2000/svg">
<path d="M13.3246 9.66668C12.9579 9.66668 12.6579 9.36668 12.6579 9.00001V5.66668C12.6579 2.72668 10.2646 0.333344 7.32458 0.333344C4.38458 0.333344 1.99125 2.72668 1.99125 5.66668V9.00001C1.99125 9.36668 1.69125 9.66668 1.32458 9.66668C0.957913 9.66668 0.657913 9.96668 0.657913 10.3333C0.657913 10.7 0.957913 11 1.32458 11H4.65791C4.65791 12.4733 5.85125 13.6667 7.32458 13.6667C8.79791 13.6667 9.99125 12.4733 9.99125 11H13.3246C13.6912 11 13.9912 10.7 13.9912 10.3333C13.9912 9.96668 13.6912 9.66668 13.3246 9.66668ZM3.20458 9.66668C3.27792 9.46001 3.32458 9.23334 3.32458 9.00001V5.66668C3.32458 3.46001 5.11791 1.66668 7.32458 1.66668C9.53125 1.66668 11.3246 3.46001 11.3246 5.66668V9.00001C11.3246 9.23334 11.3712 9.46001 11.4446 9.66668H3.20458ZM7.32458 12.3333C6.59125 12.3333 5.99125 11.7333 5.99125 11H8.65791C8.65791 11.7333 8.05791 12.3333 7.32458 12.3333Z" fill="white"/>
</svg>
