<svg width="24" height="22" viewBox="0 0 24 22" fill="none" xmlns="http://www.w3.org/2000/svg">
<path d="M8.60129 0.308411L6.44188 2.66842H2.70126C1.40325 2.66842 0.341248 3.73043 0.341248 5.02844V19.1885C0.341248 20.4865 1.40325 21.5485 2.70126 21.5485H21.5814C22.8794 21.5485 23.9414 20.4865 23.9414 19.1885V5.02844C23.9414 3.73043 22.8794 2.66842 21.5814 2.66842H17.8407L15.6813 0.308411H8.60129ZM12.1413 18.0085C8.88449 18.0085 6.24128 15.3653 6.24128 12.1085C6.24128 8.85166 8.88449 6.20844 12.1413 6.20844C15.3981 6.20844 18.0413 8.85166 18.0413 12.1085C18.0413 15.3653 15.3981 18.0085 12.1413 18.0085Z" fill="white"/>
<path d="M12.142 15.8841C14.2274 15.8841 15.918 14.1935 15.918 12.1081C15.918 10.0226 14.2274 8.33206 12.142 8.33206C10.0565 8.33206 8.36594 10.0226 8.36594 12.1081C8.36594 14.1935 10.0565 15.8841 12.142 15.8841Z" fill="white"/>
</svg>
