<svg width="20" height="20" viewBox="0 0 20 20" fill="none" xmlns="http://www.w3.org/2000/svg">
<g filter="url(#filter0_b)">
<rect x="-3.05176e-05" width="20" height="20" rx="10" fill="white" fill-opacity="0.3"/>
</g>
<path fill-rule="evenodd" clip-rule="evenodd" d="M13.5355 6.46449C13.145 6.07396 12.5118 6.07396 12.1213 6.46449L9.99997 8.58581L7.87865 6.46449C7.48812 6.07396 6.85496 6.07396 6.46444 6.46449C6.07391 6.85501 6.07391 7.48818 6.46444 7.8787L8.58576 10L6.46444 12.1213C6.07391 12.5119 6.07391 13.145 6.46444 13.5356C6.85496 13.9261 7.48813 13.9261 7.87865 13.5356L9.99997 11.4142L12.1213 13.5356C12.5118 13.9261 13.145 13.9261 13.5355 13.5356C13.926 13.145 13.926 12.5119 13.5355 12.1213L11.4142 10L13.5355 7.8787C13.926 7.48818 13.926 6.85501 13.5355 6.46449Z" fill="white"/>
<defs>
<filter id="filter0_b" x="-12" y="-12" width="44" height="44" filterUnits="userSpaceOnUse" color-interpolation-filters="sRGB">
<feFlood flood-opacity="0" result="BackgroundImageFix"/>
<feGaussianBlur in="BackgroundImage" stdDeviation="6"/>
<feComposite in2="SourceAlpha" operator="in" result="effect1_backgroundBlur"/>
<feBlend mode="normal" in="SourceGraphic" in2="effect1_backgroundBlur" result="shape"/>
</filter>
</defs>
</svg>
