<svg width="44" height="43" viewBox="0 0 44 43" fill="none" xmlns="http://www.w3.org/2000/svg">
<path d="M36.5163 25.0833H7.133V7.16668C7.133 5.19584 8.7455 3.58334 10.7163 3.58334H32.933C34.9038 3.58334 36.5163 5.19584 36.5163 7.16668V25.0833Z" fill="url(#paint0_linear)"/>
<path d="M4.08709 35.475C3.90792 36.55 4.08708 37.4458 4.62458 38.1625C5.16208 38.8792 6.23709 39.4167 7.13292 39.4167H36.5163C37.5912 39.4167 38.4871 39.0583 39.0246 38.1625C39.5621 37.4458 39.7412 36.3708 39.5621 35.475L36.5163 25.0833H7.13292L4.08709 35.475Z" fill="url(#paint1_linear)"/>
<path d="M8.02878 37.625C7.67045 37.0875 7.49128 36.3708 7.67045 35.6542L10.5371 25.9792H7.84961L4.98295 35.6542C4.80378 36.3708 4.98295 37.0875 5.34128 37.625C5.69961 38.1625 6.41628 38.5208 7.13295 38.5208H9.82045C9.10378 38.5208 8.38711 38.1625 8.02878 37.625Z" fill="#6C8896"/>
<path opacity="0.4" d="M35.7996 37.625C36.158 37.0875 36.3371 36.3708 36.158 35.6542L33.2913 25.9792H35.9788L38.8455 35.6542C39.0246 36.3708 38.8455 37.0875 38.4871 37.625C38.1288 38.1625 37.4121 38.5208 36.6955 38.5208H34.008C34.5455 38.5208 35.2621 38.1625 35.7996 37.625Z" fill="white"/>
<path d="M36.5163 39.4167H7.13292C6.05792 39.4167 5.16208 39.0583 4.62458 38.1625C4.08708 37.4458 3.90792 36.3708 4.08709 35.475L7.13292 25.0833H36.5163L39.5621 35.475C39.7412 36.55 39.5621 37.4458 39.0246 38.1625C38.4871 39.0583 37.5912 39.4167 36.5163 39.4167ZM7.84958 25.9792L4.98292 35.6542C4.80375 36.3708 4.98292 37.0875 5.34125 37.625C5.69959 38.1625 6.41625 38.5208 7.13292 38.5208H36.5163C37.2329 38.5208 37.9496 38.1625 38.3079 37.625C38.6662 37.0875 38.8454 36.3708 38.6662 35.6542L35.9788 25.9792H7.84958Z" fill="url(#paint2_linear)"/>
<path d="M8.02883 25.0833H7.133V7.16668C7.133 5.19584 8.7455 3.58334 10.7163 3.58334H32.933C34.9038 3.58334 36.5163 5.19584 36.5163 7.16668V25.0833H35.6205V7.16668C35.6205 5.73334 34.3663 4.47918 32.933 4.47918H10.7163C9.283 4.47918 8.02883 5.73334 8.02883 7.16668V25.0833Z" fill="url(#paint3_linear)"/>
<path d="M32.933 19.7083C32.933 20.6042 32.0372 21.5 31.1413 21.5H12.508C11.6122 21.5 10.7163 20.6042 10.7163 19.7083V8.95832C10.7163 8.06249 11.6122 7.16666 12.508 7.16666H31.1413C32.0372 7.16666 32.933 8.06249 32.933 8.95832V19.7083Z" fill="url(#paint4_linear)"/>
<path d="M14.2997 19.7083V8.95833C14.2997 8.42083 14.658 8.0625 15.1955 8.0625H12.508C11.9705 8.0625 11.6122 8.42083 11.6122 8.95833V19.7083C11.6122 20.2458 11.9705 20.6042 12.508 20.6042H15.1955C14.658 20.6042 14.2997 20.2458 14.2997 19.7083Z" fill="black"/>
<path opacity="0.4" d="M29.5288 19.7083V8.95833C29.5288 8.42083 29.1705 8.0625 28.633 8.0625H31.3205C31.858 8.0625 32.2163 8.42083 32.2163 8.95833V19.7083C32.2163 20.2458 31.858 20.6042 31.3205 20.6042H28.633C29.1705 20.6042 29.5288 20.2458 29.5288 19.7083Z" fill="white"/>
<path d="M36.5163 25.0833H7.133V7.16668C7.133 5.19584 8.7455 3.58334 10.7163 3.58334H32.933C34.9038 3.58334 36.5163 5.19584 36.5163 7.16668V25.0833Z" fill="url(#paint5_radial)"/>
<path d="M4.08709 35.475C3.90792 36.55 4.08708 37.4458 4.62458 38.1625C5.16208 38.8792 6.23709 39.4167 7.13292 39.4167H36.5163C37.5912 39.4167 38.4871 39.0583 39.0246 38.1625C39.5621 37.4458 39.7412 36.3708 39.5621 35.475L36.5163 25.0833H7.13292L4.08709 35.475Z" fill="url(#paint6_radial)"/>
<defs>
<linearGradient id="paint0_linear" x1="9.65154" y1="27.5926" x2="34.068" y2="3.17628" gradientUnits="userSpaceOnUse">
<stop stop-color="white"/>
<stop offset="1" stop-color="#A5C3D2"/>
</linearGradient>
<linearGradient id="paint1_linear" x1="10.5727" y1="44.2275" x2="33.147" y2="21.6534" gradientUnits="userSpaceOnUse">
<stop stop-color="#BACAD3"/>
<stop offset="1" stop-color="#6C8896"/>
</linearGradient>
<linearGradient id="paint2_linear" x1="10.5731" y1="44.2273" x2="33.147" y2="21.6534" gradientUnits="userSpaceOnUse">
<stop stop-color="#6C8896"/>
<stop offset="1" stop-color="#BACAD3"/>
</linearGradient>
<linearGradient id="paint3_linear" x1="9.65118" y1="27.5922" x2="34.0678" y2="3.17538" gradientUnits="userSpaceOnUse">
<stop stop-color="#A5C3D2"/>
<stop offset="1" stop-color="white"/>
</linearGradient>
<linearGradient id="paint4_linear" x1="13.2363" y1="22.9572" x2="30.4838" y2="5.7095" gradientUnits="userSpaceOnUse">
<stop/>
<stop offset="1" stop-color="#43525A"/>
</linearGradient>
<radialGradient id="paint5_radial" cx="0" cy="0" r="1" gradientUnits="userSpaceOnUse" gradientTransform="translate(34.2526 6.19559) scale(12.8873)">
<stop stop-color="white" stop-opacity="0.25"/>
<stop offset="1" stop-color="white" stop-opacity="0"/>
</radialGradient>
<radialGradient id="paint6_radial" cx="0" cy="0" r="1" gradientUnits="userSpaceOnUse" gradientTransform="translate(34.1029 26.2031) scale(13.6446)">
<stop stop-color="white" stop-opacity="0.4"/>
<stop offset="1" stop-color="white" stop-opacity="0"/>
</radialGradient>
</defs>
</svg>
